# xmcd
#
# Track frame offsets: 
#        150
#        20964
#        36289
#        52175
#        67951
#        90505
#        110598
#        127252
#        148273
#        164169
#        184475
#        202659
#        224276
#        243335
#        265199
#
# Disc length: 3798 seconds
#
# Revision: 1
# Processed by: cddbd v1.5.2PL0 Copyright (c) Steve Scherf et al.
# Submitted via: ExactAudioCopyFreeDBPlugin 1.0
#
DISCID=ef0ed40f
DTITLE=群星 - DTSES醉寂寞金喇叭1
DYEAR=2010
DGENRE=DTSES
TTITLE0=姑娘动了我的心
TTITLE1=我从雪山来
TTITLE2=秋风落叶
TTITLE3=爱情买卖
TTITLE4=说再见不应该在秋天
TTITLE5=在心里从此永远有个你
TTITLE6=如果能再感动你多一次
TTITLE7=看透爱情看透你
TTITLE8=姑娘我爱你
TTITLE9=爱的太累
TTITLE10=今生相爱
TTITLE11=套马杆
TTITLE12=犯错
TTITLE13=小三
TTITLE14=猜
EXTD=
EXTT0=
EXTT1=
EXTT2=
EXTT3=
EXTT4=
EXTT5=
EXTT6=
EXTT7=
EXTT8=
EXTT9=
EXTT10=
EXTT11=
EXTT12=
EXTT13=
EXTT14=
PLAYORDER=
